<?xml version="1.0" standalone="no"?>
<!DOCTYPE svg PUBLIC "-//W3C//DTD SVG 20010904//EN"
 "http://www.w3.org/TR/2001/REC-SVG-20010904/DTD/svg10.dtd">
<svg version="1.0" xmlns="http://www.w3.org/2000/svg"
 width="512.000000pt" height="512.000000pt" viewBox="0 0 512.000000 512.000000"
 preserveAspectRatio="xMidYMid meet">
<metadata>
Created by potrace 1.11, written by Peter Selinger 2001-2013
</metadata>
<g transform="translate(0.000000,512.000000) scale(0.100000,-0.100000)"
fill="#000000" stroke="none">
<path d="M0 2560 l0 -2560 2560 0 2560 0 0 2560 0 2560 -2560 0 -2560 0 0
-2560z m3660 1520 l0 -280 -607 -2 -608 -3 105 -86 c134 -109 247 -192 490
-359 300 -206 376 -265 495 -385 157 -157 241 -309 300 -541 94 -368 29 -808
-163 -1108 -250 -390 -586 -559 -1112 -560 -427 -1 -677 96 -926 357 -256 268
-385 597 -386 987 0 372 117 676 358 929 87 92 187 168 289 218 73 37 195 80
253 89 23 4 42 9 42 13 -1 3 -58 46 -128 96 -132 92 -506 379 -554 423 l-28
26 0 233 0 233 1090 0 1090 0 0 -280z"/>
<path d="M2450 2821 c-302 -57 -503 -309 -542 -678 -22 -208 18 -428 103 -569
72 -120 230 -238 372 -279 76 -22 260 -22 341 0 192 51 367 215 441 412 72
189 74 477 6 678 -67 194 -215 347 -403 412 -80 28 -234 39 -318 24z"/>
</g>
</svg>
